<mxfile host="Electron" modified="2023-11-15T11:04:00.909Z" agent="Mozilla/5.0 (Windows NT 10.0; Win64; x64) AppleWebKit/537.36 (KHTML, like Gecko) draw.io/22.0.3 Chrome/114.0.5735.289 Electron/25.8.4 Safari/537.36" etag="juC4D9CbrYavPbhdV1e7" version="22.0.3" type="device">
  <diagram name="Page-1" id="Page-1">
    <mxGraphModel dx="1418" dy="820" grid="1" gridSize="10" guides="1" tooltips="1" connect="1" arrows="1" fold="1" page="1" pageScale="1" pageWidth="1000" pageHeight="400" math="0" shadow="0">
      <root>
        <mxCell id="0" />
        <mxCell id="1" parent="0" />
        <UserObject label="" tags="Background" id="2">
          <mxCell style="vsdxID=2;fillColor=none;gradientColor=none;shape=stencil(nZBLDoAgDERP0z3SIyjew0SURgSD+Lu9kMZoXLhwN9O+tukAlrNpJg1SzDH4QW/URgNYgZTkjA4UkwJUgGXng+6DX1zLfmoymdXo17xh5zmRJ6Q42BWCfc2oJfdAr+Yv+AP9Cb7OJ3H/2JG1HNGz/84klThPVCc=);strokeColor=#4c4973;strokeWidth=4;points=[[0.5,1,0],[1,0.5,0],[0.5,0,0],[0,0.5,0],[0.5,0.5,0]];labelBackgroundColor=none;rounded=0;html=1;whiteSpace=wrap;" parent="1" vertex="1">
            <mxGeometry x="94" y="89" width="939" height="706" as="geometry" />
          </mxCell>
        </UserObject>
        <UserObject label="" tags="Background" id="16">
          <mxCell style="vsdxID=5;edgeStyle=none;startArrow=none;endArrow=none;startSize=5;endSize=5;strokeWidth=3;strokeColor=#4c4973;spacingTop=0;spacingBottom=0;spacingLeft=0;spacingRight=0;verticalAlign=middle;html=1;labelBackgroundColor=#ffffff;rounded=0;" parent="1" edge="1">
            <mxGeometry relative="1" as="geometry">
              <Array as="points" />
              <mxPoint x="163" y="143" as="sourcePoint" />
              <mxPoint x="980" y="574" as="targetPoint" />
            </mxGeometry>
          </mxCell>
        </UserObject>
        <mxCell id="17" value="&lt;div style=&quot;font-size: 1px&quot;&gt;&lt;/div&gt;" style="text;vsdxID=5;edgeStyle=none;startArrow=none;endArrow=none;startSize=5;endSize=5;strokeWidth=3;strokeColor=none;spacingTop=0;spacingBottom=0;spacingLeft=0;spacingRight=0;verticalAlign=middle;html=1;labelBackgroundColor=#ffffff;rounded=0;align=center;overflow=width;fillColor=none;gradientColor=none;whiteSpace=wrap;;html=1;;rotation=27.795980566585797" parent="16" vertex="1">
          <mxGeometry width="924.08" height="1" relative="1" as="geometry">
            <mxPoint x="-409.04" y="-0.5" as="offset" />
          </mxGeometry>
        </mxCell>
        <UserObject label="" tags="Background" id="18">
          <mxCell style="vsdxID=6;edgeStyle=none;startArrow=none;endArrow=none;startSize=5;endSize=5;strokeWidth=3;strokeColor=#4c4973;spacingTop=0;spacingBottom=0;spacingLeft=0;spacingRight=0;verticalAlign=middle;html=1;labelBackgroundColor=#ffffff;rounded=0;" parent="1" edge="1">
            <mxGeometry relative="1" as="geometry">
              <Array as="points" />
              <mxPoint x="155" y="574" as="sourcePoint" />
              <mxPoint x="969" y="131" as="targetPoint" />
            </mxGeometry>
          </mxCell>
        </UserObject>
        <mxCell id="19" value="&lt;div style=&quot;font-size: 1px&quot;&gt;&lt;/div&gt;" style="text;vsdxID=6;edgeStyle=none;startArrow=none;endArrow=none;startSize=5;endSize=5;strokeWidth=3;strokeColor=none;spacingTop=0;spacingBottom=0;spacingLeft=0;spacingRight=0;verticalAlign=middle;html=1;labelBackgroundColor=#ffffff;rounded=0;align=center;overflow=width;fillColor=none;gradientColor=none;whiteSpace=wrap;;html=1;;rotation=331.4495827616401" parent="18" vertex="1">
          <mxGeometry width="926.59" height="1" relative="1" as="geometry">
            <mxPoint x="-407.295" y="-1.5" as="offset" />
          </mxGeometry>
        </mxCell>
        <UserObject label="" tags="Background" id="20">
          <mxCell style="vsdxID=7;edgeStyle=none;startArrow=none;endArrow=none;startSize=5;endSize=5;strokeWidth=3;strokeColor=#4c4973;spacingTop=0;spacingBottom=0;spacingLeft=0;spacingRight=0;verticalAlign=middle;html=1;labelBackgroundColor=#ffffff;rounded=0;" parent="1" edge="1">
            <mxGeometry relative="1" as="geometry">
              <mxPoint as="offset" />
              <Array as="points" />
              <mxPoint x="158" y="599" as="sourcePoint" />
              <mxPoint x="980" y="599" as="targetPoint" />
            </mxGeometry>
          </mxCell>
        </UserObject>
        <UserObject label="&lt;div style=&quot;font-size: 1px&quot;&gt;&lt;font style=&quot;font-size:15.52px;font-family:Calibri;color:#4672c4;direction:ltr;letter-spacing:0px;line-height:120%;opacity:1&quot;&gt;&lt;br/&gt;&lt;br/&gt;&lt;/font&gt;&lt;/div&gt;" tags="Background" id="4">
          <mxCell style="verticalAlign=middle;align=center;overflow=width;vsdxID=11;fillColor=none;gradientColor=none;shape=stencil(nZBLDoAgDERP0z3SIyjew0SURgSD+Lu9kMZoXLhwN9O+tukAlrNpJg1SzDH4QW/URgNYgZTkjA4UkwJUgGXng+6DX1zLfmoymdXo17xh5zmRJ6Q42BWCfc2oJfdAr+Yv+AP9Cb7OJ3H/2JG1HNGz/84klThPVCc=);strokeColor=none;points=[];labelBackgroundColor=none;rounded=0;html=1;whiteSpace=wrap;" parent="1" vertex="1">
            <mxGeometry x="716" y="267" width="255" height="182" as="geometry" />
          </mxCell>
        </UserObject>
        <UserObject label="&lt;div style=&quot;&quot;&gt;&lt;p style=&quot;text-align: center; margin: 0px; text-indent: 0px; vertical-align: middle; direction: ltr;&quot;&gt;&lt;font face=&quot;Calibri&quot;&gt;&lt;span style=&quot;font-size: 12.7px;&quot;&gt;Oye comentarios entre otros padres y profesores sobre el descontento general de la comunidad educativa ante las deficiencias del sistema actual&lt;/span&gt;&lt;/font&gt;&lt;/p&gt;&lt;p style=&quot;text-align: center; margin: 0px; text-indent: 0px; vertical-align: middle; direction: ltr;&quot;&gt;&lt;font face=&quot;Calibri&quot;&gt;&lt;span style=&quot;font-size: 12.7px;&quot;&gt;Oye a su hij@ y a otros niñ@s expresar su desinterés por acudir a clase o participar en actividades en la escuela&lt;/span&gt;&lt;/font&gt;&lt;/p&gt;&lt;p style=&quot;text-align: center; margin: 0px; text-indent: 0px; vertical-align: middle; direction: ltr;&quot;&gt;&lt;font face=&quot;Calibri&quot;&gt;&lt;span style=&quot;font-size: 12.7px;&quot;&gt;Oye que existen programas pioneros en el campo educativo que están poniendo el interés del alumno y sus padres por delante, dentro de un marco de actividades lúdicas que pueden mejorar las destrezas de los estudiantes&lt;/span&gt;&lt;/font&gt;&lt;/p&gt;&lt;/div&gt;" tags="Background" id="5">
          <mxCell style="verticalAlign=middle;align=center;overflow=width;vsdxID=12;fillColor=none;gradientColor=none;shape=stencil(nZBLDoAgDERP0z3SIyjew0SURgSD+Lu9kMZoXLhwN9O+tukAlrNpJg1SzDH4QW/URgNYgZTkjA4UkwJUgGXng+6DX1zLfmoymdXo17xh5zmRJ6Q42BWCfc2oJfdAr+Yv+AP9Cb7OJ3H/2JG1HNGz/84klThPVCc=);strokeColor=none;points=[];labelBackgroundColor=none;rounded=0;html=1;whiteSpace=wrap;" parent="1" vertex="1">
            <mxGeometry x="101" y="270" width="332" height="179" as="geometry" />
          </mxCell>
        </UserObject>
        <UserObject label="&lt;div style=&quot;font-size: 1px&quot;&gt;&lt;/div&gt;" tags="Background" id="7">
          <mxCell style="verticalAlign=middle;align=center;overflow=width;vsdxID=14;fillColor=none;gradientColor=none;shape=stencil(nZBLDoAgDERP0z3SIyjew0SURgSD+Lu9kMZoXLhwN9O+tukAlrNpJg1SzDH4QW/URgNYgZTkjA4UkwJUgGXng+6DX1zLfmoymdXo17xh5zmRJ6Q42BWCfc2oJfdAr+Yv+AP9Cb7OJ3H/2JG1HNGz/84klThPVCc=);strokeColor=none;points=[];labelBackgroundColor=none;rounded=0;html=1;whiteSpace=wrap;" parent="1" vertex="1">
            <mxGeometry x="188" y="257" width="124" height="35" as="geometry" />
          </mxCell>
        </UserObject>
        <UserObject label="&lt;h3 style=&quot;font-size: 1px&quot;&gt;&lt;font style=&quot;font-size:16.93px;font-family:Calibri;color:#000000;direction:ltr;letter-spacing:0px;line-height:120%;opacity:1&quot;&gt;&lt;b&gt;¿QUÉ OYE?&lt;/b&gt;&lt;/font&gt;&lt;/h3&gt;" tags="Background" id="9">
          <mxCell style="verticalAlign=middle;align=center;overflow=width;vsdxID=16;fillColor=none;gradientColor=none;shape=stencil(nZBLDoAgDERP0z3SIyjew0SURgSD+Lu9kMZoXLhwN9O+tukAlrNpJg1SzDH4QW/URgNYgZTkjA4UkwJUgGXng+6DX1zLfmoymdXo17xh5zmRJ6Q42BWCfc2oJfdAr+Yv+AP9Cb7OJ3H/2JG1HNGz/84klThPVCc=);strokeColor=none;points=[];labelBackgroundColor=none;rounded=0;html=1;whiteSpace=wrap;" parent="1" vertex="1">
            <mxGeometry x="210" y="247" width="114" height="40" as="geometry" />
          </mxCell>
        </UserObject>
        <UserObject label="&lt;h3 style=&quot;font-size: 1px&quot;&gt;&lt;font style=&quot;font-size:16.93px;font-family:Calibri;color:#000000;direction:ltr;letter-spacing:0px;line-height:120%;opacity:1&quot;&gt;&lt;b&gt;¿QUÉ PIENSA Y SIENTE?&lt;/b&gt;&lt;/font&gt;&lt;/h3&gt;" tags="Background" id="11">
          <mxCell style="verticalAlign=middle;align=center;overflow=width;vsdxID=18;fillColor=none;gradientColor=none;shape=stencil(nZBLDoAgDERP0z3SIyjew0SURgSD+Lu9kMZoXLhwN9O+tukAlrNpJg1SzDH4QW/URgNYgZTkjA4UkwJUgGXng+6DX1zLfmoymdXo17xh5zmRJ6Q42BWCfc2oJfdAr+Yv+AP9Cb7OJ3H/2JG1HNGz/84klThPVCc=);strokeColor=none;points=[];labelBackgroundColor=none;rounded=0;html=1;whiteSpace=wrap;" parent="1" vertex="1">
            <mxGeometry x="427.5" y="110" width="255" height="25" as="geometry" />
          </mxCell>
        </UserObject>
        <UserObject label="&lt;h3 style=&quot;font-size: 1px&quot;&gt;&lt;font style=&quot;font-size:16.93px;font-family:Calibri;color:#000000;direction:ltr;letter-spacing:0px;line-height:120%;opacity:1&quot;&gt;&lt;b&gt;¿QUÉ VE?&lt;/b&gt;&lt;/font&gt;&lt;/h3&gt;" tags="Background" id="12">
          <mxCell style="verticalAlign=middle;align=center;overflow=width;vsdxID=19;fillColor=none;gradientColor=none;shape=stencil(nZBLDoAgDERP0z3SIyjew0SURgSD+Lu9kMZoXLhwN9O+tukAlrNpJg1SzDH4QW/URgNYgZTkjA4UkwJUgGXng+6DX1zLfmoymdXo17xh5zmRJ6Q42BWCfc2oJfdAr+Yv+AP9Cb7OJ3H/2JG1HNGz/84klThPVCc=);strokeColor=none;points=[];labelBackgroundColor=none;rounded=0;html=1;whiteSpace=wrap;" parent="1" vertex="1">
            <mxGeometry x="803" y="262" width="104" height="25" as="geometry" />
          </mxCell>
        </UserObject>
        <UserObject label="&lt;h3 style=&quot;font-size: 1px&quot;&gt;&lt;font style=&quot;font-size:16.93px;font-family:Calibri;color:#000000;direction:ltr;letter-spacing:0px;line-height:120%;opacity:1&quot;&gt;&lt;b&gt;¿QUÉ DICE Y HACE?&lt;/b&gt;&lt;/font&gt;&lt;/h3&gt;" tags="Background" id="13">
          <mxCell style="verticalAlign=middle;align=center;overflow=width;vsdxID=20;fillColor=none;gradientColor=none;shape=stencil(nZBLDoAgDERP0z3SIyjew0SURgSD+Lu9kMZoXLhwN9O+tukAlrNpJg1SzDH4QW/URgNYgZTkjA4UkwJUgGXng+6DX1zLfmoymdXo17xh5zmRJ6Q42BWCfc2oJfdAr+Yv+AP9Cb7OJ3H/2JG1HNGz/84klThPVCc=);strokeColor=none;points=[];labelBackgroundColor=none;rounded=0;html=1;whiteSpace=wrap;" parent="1" vertex="1">
            <mxGeometry x="461" y="440" width="199" height="21" as="geometry" />
          </mxCell>
        </UserObject>
        <UserObject label="" tags="Connector" id="21">
          <mxCell parent="1" vertex="1" visible="0">
            <mxGeometry as="geometry" />
          </mxCell>
        </UserObject>
        <mxCell id="BEs1SPhK9y_R24TOwFRo-21" value="" style="shape=image;verticalLabelPosition=bottom;labelBackgroundColor=default;verticalAlign=top;aspect=fixed;imageAspect=0;image=data:image/jpeg,/9j/4AAQSkZJRgABAQEAAAAAAAD/4QAuRXhpZgAATU0AKgAAAAgAAkAAAAMAAAABAAAAAEABAAEAAAABAAAAAAAAAAD/2wBDAAoHBwkHBgoJCAkLCwoMDxkQDw4ODx4WFxIZJCAmJSMgIyIoLTkwKCo2KyIjMkQyNjs9QEBAJjBGS0U+Sjk/QD3/2wBDAQsLCw8NDx0QEB09KSMpPT09PT09PT09PT09PT09PT09PT09PT09PT09PT09PT09PT09PT09PT09PT09PT09PT3/wAARCAHaAdoDASIAAhEBAxEB/8QAHwAAAQUBAQEBAQEAAAAAAAAAAAECAwQFBgcICQoL/8QAtRAAAgEDAwIEAwUFBAQAAAF9AQIDAAQRBRIhMUEGE1FhByJxFDKBkaEII0KxwRVS0fAkM2JyggkKFhcYGRolJicoKSo0NTY3ODk6Q0RFRkdISUpTVFVWV1hZWmNkZWZnaGlqc3R1dnd4eXqDhIWGh4iJipKTlJWWl5iZmqKjpKWmp6ipqrKztLW2t7i5usLDxMXGx8jJytLT1NXW19jZ2uHi4+Tl5ufo6erx8vP09fb3+Pn6/8QAHwEAAwEBAQEBAQEBAQAAAAAAAAECAwQFBgcICQoL/8QAtREAAgECBAQDBAcFBAQAAQJ3AAECAxEEBSExBhJBUQdhcRMiMoEIFEKRobHBCSMzUvAVYnLRChYkNOEl8RcYGRomJygpKjU2Nzg5OkNERUZHSElKU1RVVldYWVpjZGVmZ2hpanN0dXZ3eHl6goOEhYaHiImKkpOUlZaXmJmaoqOkpaanqKmqsrO0tba3uLm6wsPExcbHyMnK0tPU1dbX2Nna4uPk5ebn6Onq8vP09fb3+Pn6/9oADAMBAAIRAxEAPwD2WiiigAooooAKKKKACiiigAooooAKKKKACiiigAooooAKKKKACiiigAooooAKKZJKkMZeR1RAMlmOAK4XxD8YPDuiForaVtRuF/ht/uD6sePyzQB3tVr3UbPTYGmvrqG3jUZLyyBQPzr5/wBc+M/iLVMpYtFpsJ6CEbn/AO+j/QCuFvL+71Gbzr25muJP70shc/maAPorVfjB4V0zesd3JeyL/DbRlgfoxwv61yOo/H58uumaKAMfK9xLz+Kgf1rxuigDvr/4z+Kr1dsU1raj/pjAD/6FmuW1TxNqutNnULrzTnP+rRf5AVlUUAPMrnqf0ppJPWkooAKcJGHQ/pTaKALllq15p04mtZvLkHRtoP8AMV1Nh8XPFdiR/psMyD+CS3TH6AGuKooA9YsPj5qUQxqGk2s/PWGRo/57q63TPjf4bvDtvEu7FsdZI96n8VyfzAr56ooA+t9L8SaPrak6bqVrc4AyscoJH1HUVqV8bxyPE4eNmR1OQynBFdZofxR8T6HtWPUGuoR/yyuh5g/Pr+tAH05RXlnh/wCOWl3pWLWrWSxkP/LRP3kf+I/X616Rp2qWOrW4n0+6huYj0aNwwoAt0UUUAFFFFABRRRQAUUUUAFFFFABRRRQAUUUUAFFFFABRRRQAUUUUAFFFFABRRRQAUUUUAFFFFABRRRQAUUUUAFFFFABRRRQAUUVx/jH4k6R4SRoXf7Vf4+W2iPKn/aP8I/X2oA62WaOCJpJpFjjUZZnOAPxNea+KfjVpWll4NET+0bgceZnbEv49W/D868m8VePdZ8WzH7dcGO2zlbaI7UX/ABPua5qgDf8AEHjXXPE8hOpXrtHniBPljH/AR16d81gUUUAFFFFABRRV+w0TUtUZRYWFzcbjgGOMkZ+vSgChRXbWHwh8W3ykmwS2A/5+JQufyzXQW3wD1WSMNc6paQueqqjPj8eKAPKaK9tt/gBabR9p1qYt38uIAfrU/wDwoHSv+gve/wDfCUAeF0V7p/woHSf+gvff98JTJPgDp+D5es3Qb/ajU0AeHUV65cfAG+DMbfWbdh/CHiIP6Vg33wY8VWiO8UFvcheghmGT+BxQBwNFa+peFNc0hiL/AEq7hwMkmMlcfUcVkUAFFFFABV7S9Z1DRbkXOmXc1rMP4o2xn6joeveqNFAHsfhf45Muy38S224dPtVuOf8AgS/4flXrel6vYa3aLdaZdxXMLfxRnOPr6H618g1p6J4g1Lw7ei60q6kt5B1AOVb2I6EUAfXFFeZ+CvjFYa15dlrgWxvThRLn91Ifr/Cfrx716WCGAIIIPcUALRRRQAUUUUAFFFFABRRRQAUUUUAFFFFABRRRQAUUUUAFFFFABRRRQAUUUUAFFFFABRRRQAUUUUAFFFFABUdxcRWsDz3EixRRrud3OAo9zVPWtbsfD+myX+pzrDBGOp6sfQDuT6V88eO/iNf+MbloY2a20tT+7tw33v8Aaf1Pt0FAHVeO/jLJceZp/hd2jhI2veEYdv8Ac9B7nn6V5JJI8sjSSOXdjlmY5JplFABRRRQAUVveG/BeteK5tumWjGEHDzyfLGv1bufYZPtXsnhj4LaNpQSbWCdSuRztYbYl/wCA9/x/IUAeJ6L4Y1jxFLs0rT5rjB5dRhB9WPAr0nRPgPcSBZNd1FYgesVqNxH/AAI8fp+Nez29vDawrFbxJFEowqIoUD8BUtAHK6P8NPDGi7Wg0uOWRSGElx+8YH8en4V08cUcKBI0VFHQKMCn0UAFFFFABRRRQAUUUUAFFFFACFQwIYAg9QawdY8DeHtdDG+0u3aQjHmIuxx+IrfooA8h134D2z75NC1F4W5IhuBuX2AYcj6nNeaeIPAfiDw0WbUNPkMI/wCW8Xzx/mOg+uK+qaQgOpVgCD1BFAHxrRX0l4n+E+geIQ8sEX9n3pyRLbj5Sf8AaToeT2wfevG/Ffw313woXlmg+02QPFzACygf7Q6r+PHuaAORooooAK7/AMD/ABU1HwuyWmoF73TOmwtl4h/sk9vY/pXAUUAfXej61YeINPS9025SeB+6nlT6Edj7GtCvlHwv4s1LwjqYu9Nl+U8Swtyko9CP69RX0X4O8Z6f4z0wXFm3l3CY862Y/NGf6j3/AJGgDo6KKKACiiigAooooAKKKKACiiigAooooAKKKKACiiigAooooAKKKKACiiigAooooAKKKKACsvxF4hsfDOkyX+oyhI14VR952/ugdzTtd12y8OaTNqOoSbIYx26seyj1Jr5o8Y+ML7xjqzXV2SkCZEEAPyxr/U+poAPGPjG/8Zaqbm8YpAmRBbqfljX+pPc/0rnaKKACiit/wp4O1Pxdfi30+LESkebcP9yMe/qfYc0AY9lZXGoXcdrZwPPPIdqRoMljXsvgv4KxQiO98UESyfeWzQ/Kv++w6/Qce5ruvCPgbS/B1nssovMumGJbmQfO/wDgPYV0tAEVtbQ2dukFrCkMMY2rHGoVVHsBUtFFABRRRQAUUUUAFFFFABRRRQAUUUUAFFFFABRRRQAUUUUAFIyh1KsAVPUHvS0UAeaeM/g5p2tLJd6Hs0+9PJjA/cyH6fwn3HHtXh+s6JqHh/UHstUtnt517N0YeoPce4r67rK8QeG9N8T6ebTVLdZE6o44dD6qexoA+SaK7Hxx8O9R8G3JlwbnTWbEdyB09Aw7H9DXHUAFaGi63feH9Tiv9NnaGeM8EdGHcEdwfSs+igD6g8CeOrLxnp26PEN/EB59uTyD/eX1U/p0rq6+Q9H1e80HU4b/AE+YxXERyCOh9j6g+lfS/gnxnZ+MtIW5gIjuo8C4gzyjf1B9aAOlooooAKKKKACiiigAooooAKKKKACiiigAooooAKKKKACiiigAooooAKKKKACorq6hsrWW5uZFjhiUu7scBQKlrwv4xePDf3beHtOlP2aBv9KdT/rHH8P0H8/pQBzHxC8cz+MtWPllo9NgJFvET1/2z7n9BxXH0UUAFFFdl8PvANx4y1PMgaLTYGHny4wT/sL7n9KAE8B/D698ZXfmNut9NibEs5H3v9lfU/yr6L0bRbHQNMisNNgENvGOAOpPqT3J9al0+wttLsYrOyhWG3hXaiKOgq1QAUUUUAFFFFABRRRQAUUUUAFFFFABRRRQAUUUUAFFFFABRRRQAUUUUAFFFFABRRRQBDd2sF/ayW11Es0EqlXRxkMK8C+I/wALpvDZk1LSFebSycuvVrf6+q+/bv619B02SNJYmjlUOjDDKwyCKAPjaivS/ih8NW8PTPq2kRk6ZI2ZIx1tyf8A2U/p0rzSgArY8M+I7vwtrUOo2THKHDoTxIvdT7Vj0UAfW/h3X7PxNo8OpWD5ikGCp6o3dT7itSvmn4a+OJPCOtiO4cnTLkhZ1/uns49x/KvpOORJo1kjYMjgMrA9QaAH0UUUAFFFFABRRRQAUUUUAFFFFABRRRQAUUUUAFFFFABRRRQAUUVDd3UNhZzXVy4jhhQu7HoAOTQBxvxQ8aDwp4fMVq4GpXgKQj+4P4n/AAzj6mvm5iXJZiST1JPJrb8Y+JZ/FfiS51GbIRjshQ/wRj7o/r9SawqACiirNjY3GpX0NnaRGWedwiKo5JNAGv4N8J3XjHXo7G3ykQ+aebGRGnr9ewFfTmjaPZ6BpcOnadEIreFcADqT3JPcn1rL8EeErfwfoEdnHh7h/nuJcfff/AdBXR0AFFFFABRRRQAUUUUAFFFFABRRRQAUUUUAFFFFABRRRQAUUUUAFFFFABRRRQAUUUUAFFFFABRRRQBHcW8V3byQXEaywyKVdGGQwPY183fEnwG/g7VBLahn0u5Y+S56xnuhPr6HuK+laztd0S08Q6PcabfIGhnXGccqezD3B5oA+RaK1/Evh678L65caZejLxHKuBxIh6MPY/zyKyKACvcPgv41N5bf8I9fyZmhUtasx5ZO6fUdfp9K8Pq1pmoXGlajb3tpIY54HDowPcUAfYNFZHhfX4PE/h+11O3wBKvzr/ccdV/A1r0AFFFFABRRRQAUUUUAFFFFABRRRQAUUUUAFFFFABRRRQAV5L8cPFRtbCHw/aviS5AluSD0QH5V/EjP4D1r1S8uorGzmurhgkMCNI7HsAMn+VfJ3iTWpvEXiC81O4zuuJCwH91eij8AAKAMuiiigAr3D4LeCha2p8RX0f76YFbVT/Cndvqen0+teZeBvDEnizxNb2OCLdT5lww/hQdfxPT8a+pLeCO2gjghQJHGoVVHYDgUASUUUUAFFFFABRRRQAUUUUAFFFFABRRRQAUUUUAFFFFABRRRQAUUUUAFFFFABRRRQAUUUUAFFFFABRRRQAUUUUAcJ8VfBg8T+H2ubWMHUbIF4sdZF/iT+o9x71839OK+y6+dPi74SHh7xKb21j22OoZdcdEk/iH9fxoA8/ooooA9O+Cniv8AszXX0W5fFtfnMeTwsoHH/fQGPqBXvtfHNvNJbTxzwOUliYOjDqpHIP519WeEdfj8TeGbLU0wGmT96o/hkHDD8wfwxQBtUUUUAFFFFABRRRQAUUUUAFFFFABRRRQAUUUUAFFFFAHmnxt8Q/2b4Xj0uJ8Tag+Gweka8n8zgfnXz/Xa/FfXDrXjq8CsTDZ/6NGP93r/AOPZriqACiitzwboLeJfFNjpoB8uSTdKR2Qct+goA9s+DvhYaJ4XGoXCYu9QxJyOVj/hH49fxFeh0yKNIYkjjUKiKFVR2Ap9ABRRRQAUUUUAFFFFABRRRQAUUUUAFFFFABRRRQAUUUUAFFFFABRRRQAUUUUAFFFFABRRRQAUUUUAFFFFABRRRQAVzfjzw0vinwrdWQUG4VfNtz6OOn59PxrpKKAPjeSNopGSRSrqSrKexFMruvi74cGh+MpZ4UC21+PPTHQN/EPz5/GuFoAK9f8AgR4hMV5e6FM/ySj7RAD/AHhww/EYP4GvIK1vDGsPoHiWw1JM/wCjzBmA7r0YfiCRQB9a0UyKVJ40kjYNG6hlYdwafQAUUUUAFFFFABRRRQAUUUUAFFFFABRRRQAVneIdUXRPD9/qLMF+zws4JH8WOP1wK0a85+NurfYfBa2aOVkvZgmAOqryf6UAfPssrTzPK5yzsWJ9zTKKKACvaPgNoQEWoa3KvJIt4j+rf+yj868XGScDqa+q/AejjQ/BemWeMSeSJJMjB3N8xz7jOPwoA6CiiigAooooAKKKKACiiigAooooAKKKKACiiigAooooAKKKKACiiigAooooAKKKKACiiigAooooAKKKKACiiigAooooAKKKKAPPfjPoQ1TwYb1FzNp7+aDn+A8N/Q/hXztX2HqFnHqOn3FnL9yeNo247EYr5F1Czk07Ubi0mUrJBI0ZB6jBxQBWooooA+m/hZrP9s+ArB2bdLbA20nHQr0/8dK12FeMfALVTv1XSmZjkLcIp6DHyt+Jyv5V7PQAUUUUAFFFFABRRRQAUUUUAFFFFABRRRQAV4Z8etSMuuadYLJlIITIyjszH/ACvc6+ZvixfC++ImpFRgQlYfrtUCgDjaKKKANfwppn9seKtMsCCUnuEV8dlzz+ma+tOnA6V87fBPT/ALX4+Wcni0t3lx65+T/2avomgAooooAKKKKACiiigAooooAKKKKACiiigAooooAKKKKACiiigAooooAKKKKACiiigAooooAKKKKACiiigAooooAKKKKACiiigAr5r+Lul/2b8QL1lQrHdBZwT3JHzfqDX0pXi3x+sALnSL8E7nR4CPodw/8AQjQB47RRRQB23wi1H+z/AIg2Ks5VLkPAw/vZHyj/AL6Ar6Vr5G8OXx0zxJp14BkwXCPj6NX1zQAUUUUAFFFFABRRRQAUUUUAFFFFABRRRQAV8l+LL06h4r1S6P8Ay0unP/j2P6V9ZSOI43c9FBJr4/1F/M1K6f8AvSuf1oArUUUUAexfs/2qtc6zdkfOiRRg+xLE/wDoIr2mvLfgLbqnhnUJ8fNJdbSf91R/8VXqVABRRRQAUUUUAFFFFABRRRQAUUUUAFFFFABRRRQAUUUUAFFFFABRRRQAUUUUAFFFFABRRRQAUUUUAFFFFABRRRQAUUUUAFFFFABXmvx0tll8FQTlcvFdrg+gKtn+Qr0quM+LVuJvhzqRIz5exx/30B/WgD5nooooAdG5jkVx1Ugivr7SLk3mjWVy3Wa3jkP4qD/Wvj+vrHwbP9p8G6RJ1zaRj8lx/SgDaooooAKKKKACiiigAooooAKKKKACiiigCtqbbNKu2/uwuf8Ax018fMxd2Y9Sc19f6v8A8ga9/wCveT/0E18f0AFFFFAH0D8CR/xQ1wf+n5//AEBK9Krzb4E/8iNc/wDX9J/6Alek0AFFFFABRRRQAUUUUAFFFFABRRRQAUUUUAFFFFABRRRQAUUUUAFFFFABRRRQAUUUUAFFFFABRRRQAUUUUAFFFFABRRRQAUUUUAFcn8UefhvrP/XJf/Q1rrK5T4onHw41n/rkv/oa0AfL9FFFABX1H8NH3/DvRSevkY/JiK+XK+ovhmNvw60YH/niT/48aAOpooooAKKKKACiiigAooooAKKKKACiiigCpq//ACBr3/r3k/8AQTXx/X2Bq/8AyBr3/r3k/wDQTXx/QAUUUUAfQXwJ/wCRGuf+v6T/ANASvSa82+BP/IjXP/X9J/6Alek0AFFFFABWbqfiLSNF2jU9StbUt0EsgUn8K88+KnxLm0KU6LocireEZuJxyYs/wr/td89vr08NnuJbmZpriV5ZXOWd2LFvqTQB9VWnjfw5fzrDa61YySucKglGT+dbgYMAQcg8givjWvQPh98TbzwzdxWeozPcaS5ClWO5oPdfYf3fyoA+i6KjhmjuIUmhdXjdQysDwQec1JQAUUUUAFFFFABRRRQAUUUUAFFFFABRRRQAUUUUAFFFFABRRRQAUUUUAFFFFABRRRQAUUUUAFFFFABXH/FeVYvhxqgP8aoo/wC+1P8ASuwrzn443Ai8DRxBsNLdoMeoAY/4UAfPVFFFABX1f4Jt/s3grR4sYxaofzGf618oopdwo6k4r680SA2uhafA33oraND9QoFAF6iiigAooooAKKKKACiiigAooooAKKKKAOX+IfiOPw14Ru7htpmmUwQof4mYY/IDJr5crvvi54r/AOEg8UPaW77rPTyY1x0Z/wCI/nx+FcDQAUUVNbW8t3dRW9uheWVxGijqzE4A/OgD334Foy+BZiwIDXzlSe42oP5g16RWN4S0JPDPhmy0tSGaBP3jf3nPLH6ZJ/DFbNABUN3cJaWc1w/3IUZ2+gGf6VNUN7bLeWVxbMcLNG0ZPsRj+tAHyJqd9LqWp3V7O5eSeVpGY9yTmqtWL+0k0/ULi0nRkkgkaNlbqCDiq9ABRRRQB9I/B7U5dR8A2yztua2kaAHvtHI/nj8K7quD+DWnyWHgGB5l2tcyvMvup4H8jXeUAFFFFABRRRQAUUUUAFFFFABRRRQAUUUUAFFFFABRRRQAUUUUAFFFFABRRRQAUUUUAFFFFABRRRQAV4z8fr9T/ZFgD843zMPY4A/ka9mr5x+Mmqf2j49nhVw0dnGsIx2PVv1JoA4KiiigC/oVk+o69YWkf35rhEH4sK+vOnAr5l+FGnjUfiHpoYErAWnJHqoyP1xX01QAUUUUAFFFFABRRRQAUUUUAFFFFABXI/ErxT/wi3hSeWJgLy5/c247gnq34DJ/Kuu6cmvmn4peKf8AhJvFkohfdZWeYIMdDj7zfif0AoA4ssWJJJJPc0lFFABXqvwR8KfbtWk166TMFmdkGR96Ujk/8BB/Mj0rzTTrGfU9Qt7K1QvPO4jRR3Jr6t8N6HB4b0C00u2A2QJhmxje3Ut+JyaANSiiigAooooA8j+K/wANZtRnk13Q4fMnI/0q3QfM+P41Hc46jv1614k6NG7I6lXU4KkYINfZNYmseDdA18s+p6XbTSsMGXbtf/voc0AfJ9dr4B+Hd94uvop7iN4NKRsyTsMeZj+FPU9s9B9eK9tsPhp4T02XzINGgZs5BmLS4/76Jrp0RY0CooVQMAAdKAG29vFaW8cECBIo1CIo6ADgVJRRQAUUUUAFFFFABRRRQAUUUUAFFFFABRRRQAUUUUAFFFFABRRRQAUUUUAFFFFABRRRQAUUUUAFFFFAEV1cJaWstxMcRwoZGPoAMn+VfI2sahJq2s3l9K257iZpCcdcmvoX4va6NH8Dzwo2J75hAgBwcdWI/AY/Gvm2gAooooA9e+AemF9Q1TUznEcawKCOpY5P/oI/Ovba4j4RaOdJ8A2jOpWW8ZrlgRzg8D8Nqg/jXb0AFFFFABRRRQAUUUUAFFFFABRRSFgoJJwBySaAOK+Kniv/AIRnwpJHbybb69zDDg8qP4m/AfqRXzVXWfEXxUfFfiy4uInJs7fMNsM8bB1b/gRyfpgdq5OgAooq9o2lz63q9rp1ouZriQIvHT1P0AyfwoA9R+B/hTzrmbxFdR/JDmK1yP4v4m/AcZ9zXtlUNE0m30LRrXTbRQIbdAg9/Un3Jyav0AFFFFABRRRQAUUUUAFFFFABRRRQAUUUUAFFFFABRRRQAUUUUAFFFFABRRRQAUUUUAFFFFABRRRQAUUUUAFFFFABRRRQAUUUUAFFFY3i3xBH4Z8NXmpSEbo0xGv95zwo/OgDxL40eIv7V8WDT4XzBp67Dg9XPLf0H4V51UtzcSXdzLcTMWllYuzHuTzUVABV/RNLl1rWrPToB+8uZVjBx0yeT+AyfwqhXqfwL8P/AGzXbnWZU/dWSeXESOsjdfyXP/fQoA9ytbaOztIbaBQsUKCNF9FAwP0FTUUUAFFFFABRRRQAUUUUAFFFFABXn/xf8VjQfC7WNu+LzUcxrg8rH/E35HH413ssqQRPLKyoiKWZieAB3r5b8eeJ38V+Kbm+yfs6ny7dT/DGOn58n8aAObooooAK9p+B3hTZHN4huk+Zsw2uR0H8Tf0/OvKfD2iXHiLXbTTLUHfO4Un+6vc/gMmvq3S9Og0jTbewtECQ28YjUfT/ADmgC3RRRQAUUUUAFFFFABRRRQAUUUUAFFFFABRRRQAUUUUAFFFFABRRRQAUUUUAFFFFABRRRQAUUUUAFFFFABRRRQAUUUUAFFFFABRRRQAV4H8afFg1TWU0W0kzbWJzKQeGlPb8Bx9Sa9Q+Ifi+Pwh4cknRgb2fMdsmerf3voOv5CvmSWV55XllZnd2LMxPJJ6mgCOiiigByqXIVQSxOAB3r6l8A+HR4Y8IWdiygXDL5twfWRuSPw4H4V4v8IPCp17xUt7cJmz07ErZHDSfwD8xn8K+jKACiiigAooooAKKKKACiiigAooooA86+M3iNtH8KLYW7lbjUWMZIPIjHLfnwPoTXzzXoPxq1Fr3x29vkGOzgSNce/zH9Wx+FefUAFFFbHhXQZfE3iO00yHI85/nb+6g5Y/lQB638EPCn2PTpdfuo/3t1+7t8jpGOp/E8fhXrFQ2dpDYWcNrbIEhhQIijsBwKmoAKKKKACiiigAooooAKKKKACiiigAooooAKKKKACiiigAooooAKKKKACiiigAooooAKKKKACiiigAooooAKKKKACiiigAooooAKgvr6302xmu7uQRQQoXdz2AqZmCgkkADua8A+LHxBHiC6Oj6VMTpsDfvJFPE7j+ajt6nn0oA5fxx4sn8YeIJb19y2yfJbRH+BP8AE9TXOUUUAFSwQyXM8cMKF5JWCIo/iJ4A/Ooq9c+Cvgs3V0fEV9H+6hJW0B/ifoW+g6fXPpQB6Z4E8Lx+EvDFvYgA3DfvLhx/FIev4DgfhXR0UUAFFFFABRRRQAUUUUAFFFFABRRRQB8sfERnb4ga15mci6cD6dv0xXN133xm0xrDx7NPtAjvIllUjvxtP6g1wNABXpPwRv7Gx8VXRvp4oXlt/LhMhA3NuBwD64FebUUAfZCyo6gq6sD3BzTt49R+dfH0Wo3lugSG7uI0HRUlIFP/ALX1H/n/ALv/AL/N/jQB9f5B7j86K+QRrOpKwK6jeAjoRO3+Ndr4L+LGraFdxQatPJfacSFYSHdJGPVW6n6HNAH0TRUNtcxXlrFc20iyQzIJEdTkMpGQfyqagAooooAKKKKACiiigAooooAKKKKACiiigAooooAKKKKACiiigAooooAKKKKACiiigAooooAKKKKACiiigAoorx34pfE94ZZ9C0GXa4yl1cqeh7ov8ifwoAj+K/xLVlm0DQ5sg5S7uEP5op/mfwrxqjrRQAUUVc0vTLnWNRgsbKIyzzsFRR/noKANfwT4TuPGGvxWUYZbdPmuJQPuJ/iegr6hsbKDTbGGztIxHBCgREHQAVieCfCNt4O0KOyhIknf555cfff/AAHQV0VABRRRQAUUUUAFFFFABRRRQAUUUUAFFFFAHCfFfwg/ifw4J7NN1/YkyRqOsi/xL9eAR9K+cCCCQeCK+yq8m+IfwjGpTTat4dVUumy8tp0WQ+q+hPp0J9KAPDaKsXtjc6ddPb3sEkEyHDJIpUj8DVegAooooAKKKKAPpH4O3sl58PbVZCSYJJIQT6A5H5bsfhXdV578Ef8Akn4/6+pP6V6FQAUUUUAFFFFABRRRQAUUUUAFFFFABRRRQAUUUUAFFFFABRRRQAUUUUAFFFFABRRRQAUUUUAFFFFABRRRQBn69dtp+gahdRnEkNu7qR2IU4/WvkeSRpZGkkJZ2JZie5NfWHi//kT9W/69ZP8A0GvkygAooooAlt7eW7uI7e3jaWaRgqIoyWJr6M+G3w9h8I6eLq8VZNVnX943Xyh/cX+p7/SsX4M+D7G30WLxDMBNe3BZYyw4hUEjj3OOv4V6pQAUUUUAFFFFABRRRQAUUUUAFFFFABRRRQAUUUUAFFFFAGZq/h7Stfh8vVLGC5UdC6/Mv0PUVxF/8DPDlzJutJ72zGPuJIHH/jwJ/WvSqKAPG774D21taz3EeszFYo2cK0I5wM+teMV9gav/AMga9/695P8A0E18f0AFFFFAH0T8Ef8Akn4/6+pP6V6FXnvwR/5J+P8Ar6k/pXoVABRRRQAUUUUAFFFFABRRRQAUUUUAFFFFABRRRQAUUUUAFFFFABRRRQAUUUUAFFFFABRRRQAUUUUAFFFFAGP4v/5E/Vv+vWT/ANBr5Mr6z8X/APIn6t/16yf+g18mUAFFFFAH0x8Iv+Sb6b9ZP/Q2rs64z4Rf8k3036yf+htXZ0AFFFFABRRRQAUUUUAFFFFABRRRQAUUUUAFFFFABRRRQAUUUUAVNX/5A17/ANe8n/oJr4/r7A1f/kDXv/XvJ/6Ca+P6ACiiigD6J+CP/JPx/wBfUn9K9Crz34I/8k/H/X1J/SvQqACiiigAooooAKKKKACiiigAooooAKKKKACiiigAooooAKKKKACiiigAooooAKKKKACiiigAooooAKKKKAMfxf8A8ifq3/XrJ/6DXyZX1n4v/wCRP1b/AK9ZP/Qa+TKACiiigD6Y+EX/ACTfTfrJ/wChtXZ1xnwi/wCSb6b9ZP8A0Nq7OgAooooAKKKKACiiigAooooAKKKKACiiigAooooAKKKKACiiigCpq/8AyBr3/r3k/wDQTXx/X2Bq/wDyBr3/AK95P/QTXx/QAUUUUAfRPwR/5J+P+vqT+lehV578Ef8Akn4/6+pP6V6FQAUUUUAFFFFABRRRQAUUUUAFFFFABRRRQAUUUUAFFFFABRRRQAUUUUAFFFFABRRRQAUUUUAFFFFABRRRQBj+L/8AkT9W/wCvWT/0GvkyvrPxf/yJ+rf9esn/AKDXyZQAUUUUAfTHwi/5Jvpv1k/9DauzrjPhF/yTfTfrJ/6G1dnQAUUUUAFFFFABRRRQAUUUUAFFFFABRRRQAUUUUAFFFFABRRRQBU1b/kD3v/XvJ/6Ca+P6+yJoxNC8TdHUqfxr4/1CH7PqN1DjHlysuPocUAV6KKKAPoj4IMp8AkA8rdyA/kv+Neh1498BdbQ2uo6LIwEiuLmId2BAVvywv517DQAUUUUAFFFFABRRRQAUUUUAFFFFABRRRQAUUUUAFFFFABRRRQAUUUUAFFFFABRRRQAUUUUAFFFFABRRRQBj+L/+RP1b/r1k/wDQa+TK+s/F/wDyJ+rf9esn/oNfJlABRRRQB9MfCL/km+m/WT/0Nq7OuM+EX/JN9N+sn/obV2dABRRRQAUUUUAFFFFABRRRQAUUUUAFFFFABRRRQAUUUUAFFFFABXzN8VdHbR/Hl98pEV0RcRnGAQ3XH0ORX0zXnHxl8KtrXhxdTtY911p+WYActGfvfl1/OgD57ooooA0dC1q78Paxb6lYPtngbI9GHcH2IyK+mfCPjHTvF+nLcWUirOAPOt2Pzxn+o96+VatWGo3el3aXVjcS286fdeNtpH+fSgD7Bor580v43+IrJFS8itb5VGMuuxj9SP8ACnXvxz8RzSk2tvZWyf3TGXP5k0AfQNIzKilmYKB3JwK+Ybv4n+LbxnLazNGrfwxqqgfkKwrnXNUvARc6leTKx5DzswP4E0AfVd74h0jTU33up2cC+rzKKwb74qeEbEgNqySk/wDPBGk/kK+Y6KAPfrz46+H4HK21pf3Ix94KqD9Tmqtn8etLkm23el3cUZP30ZXx9R/hXhdFAH11ouu6f4h09L3S7lZ4G7rwVPoR1B9jWjXzF8OPFFx4b8WWu12+yXTrDcR54IJwG+oJBz9a+naACiiigAooooAKKKKACiiigAooooAKKKKACiiigAooooAKKKKACiiigDH8X/8AIn6t/wBesn/oNfJlfWfi/wD5E/Vv+vWT/wBBr5MoAKKKKAPpj4Rf8k3036yf+htXZ1xnwi/5Jvpv1k/9DauzoAKKKKACiiigAooooAKKKKACiiigAooooAKKKKACiiigAooooAKa6q6FWUMpGCCOtOooA+cvif4Al8L6m99ZRltKuWyhA/1LH+A+3ofwrga+w76xttTspbS9hWa3lXa6MMgivAfHfwov/Dry3ukpJeaYTnCjdJD7Edx7j8aAPOqKKKACiiigAooooAKKKKACiiigCW1JW6hI6hx/OvsSL/Up/uivjm3/AOPiL/fH86+xov8AUp/uigB1FFFABRRRQAUUUUAFFFFABRRRQAUUUUAFFFFABRRRQAUUUUAFFFFAGP4v/wCRP1b/AK9ZP/Qa+TK+sfGTrH4O1ZnYKv2V+ScDpXydQAUUUUAfTHwi/wCSb6b9ZP8A0Nq7OuM+EX/JN9N+sn/obV2dABRRRQAUUUUAFFFFABRRRQAUUUUAFFFFABRRRQAUUUUAFFFFABRRRQAUdeDRRQBxPif4VeH/ABI7ziE2N23PnW+BuP8AtL0P6H3rzPV/gf4hsSzadLbahGBkAN5bn8G4/WvoKigD5WvPh94psf8AXaHeH/rmnmf+g5pLLwB4ov2Ig0O9BH/PWPy//QsV9VUUAfOdl8FvFl0m6SG1tfaafn/x0Gt6z+AN46qbzWoIz/EscJf9SR/KvbqKAPMLT4D6FEVa5vr+fHVQVQH8hn9a534q+BdD8KeG7W40m1eOaS4Ebu0jPkbSe545A6V7jXl/x6/5FSw/6/B/6C1AHglFFFAD4f8AXx/7wr7Fh/1Kf7or45i/1qf7wr7Gh/1Ef+6KAH0UUUAFFFFABRRRQAUUUUAFFFRS3MFupaeaONQOS7AfzoAlorm774heFtOVjPrdoxU4KxP5h/Jcmucv/jj4ZtW220d7d8fejiCj/wAeIP6UAej0V4pffH65ZXXT9FiQ/wALzTFvzUAfzrm7/wCM3iy8I8q5t7QekEA/9mzQB9H1SvdY03TQDfahaWwPTzplTP5mvlq+8X+INS3/AGvWb6RX6r57BT/wEcVjs5b7xJ+poA+m774qeEbAsraskzr/AAwIz/qBj9a5u++PejxD/QdMvLhs/wDLVljH6bq8HooA9Uvvj1q8rMLHTLOBD0MhZ2H6gfpXN33xW8XX6FG1Z4VPP7hFjI/EDNcfRQBev9a1LVH3ahf3Ny2Osshb+dUaKKACiiuk8B+F5fFnia3swp+zIRJcuP4Yx1/E9PxoA+gPhtYPp3w/0eGTG8w+acf7ZLD9GFdPTURY0VI1CoowAB0FOoAKKKKACiiigAooooAKKKKACiiigAooooAKKKKACiiigAooooAKKKKACiiigAooooAKKKKACiiigAry/wCPX/IqWH/X4P8A0Fq9Qry/49f8ipYf9fg/9BagDwSiiigB0f8ArF+or7Gg/wBRH/uivjhPvj619MXPxS8J6fbx7tVScgAYgUuf0oA7KivLr748aLA5WzsLy5AHDHCA/nzXM33x61eZCtjptpbtnhnYyfpxQB7vTXdY1LOwVR3JxXzRf/FjxbfPn+0zbr/dgjCj/GucvNc1PUNwvNRu5wx+YSTMQfwoA+pb/wAV6FphAvdXsoWPQNMM1zl98Y/CdnvWO7muXXoIYTg/QnAr5uooA9sv/j9aqB/Z2jTSHuZ5Qn8s1zl98cvEdwzC1gsrVD0xGXYfiT/SvNqKAOlv/iJ4p1JNtxrd0Fz0iIj/APQcVgXN5cXsvmXU8s8n96Ryx/M1DRQAUUUUAFFFFABRRRQAUUU+KKSd9kSO7HsoyaAGUVt2Pg3xDqab7PR7yVM43CMgfrXS2PwW8U3TJ58Vtao3JaSUEj8BQB5/RXsen/AGQg/2jrSKc8C3i3fzxXT6Z8FfDFiyPcJcXrqMETSYU/gMfzoA8Q8N+E9U8VXwttNtywBHmSnhIx6k/wBOtfR3g7wfY+DtIW0tBvmfDTzkfNI39AOw/rW1ZWNtp1stvZW8VvCvRI1CgflVigAooooAKKKKACiiigAooooAKKKKACiiigAooooAKKKKACiiigAooooAKKKKACiiigAooooAKKKKACiiigArzP46wvJ4OtpFGUiuwWPplSP516ZXO+PdCbxJ4Nv7GMEzFPMiGerryPzxj8aAPlainOrRuVYFWHBBHIptABRRRQAUUUUAFFFFABRRRQAUVNbWlzeyeXa28s7/AN2JCx/IVv2Pw78U6koe30W6CE4zIBH/AOhYoA5qivSrH4GeIrh1+1z2VqhGSd5cj8AP610dj8AbUIf7Q1mZ2zx5EQUfrmgDxKivpKx+DvhOyKM9nLcuo5M0pIP4DiujsPCmhaYCLHSbOHPUrECT+dAHy1aaDqt+yC0067m3n5SkLEH8a6Ow+E3i2+Yj+zPs4He4kCZr6WRFjUKihVHQAYFOoA8KsfgLqsqI17qdrBk/MiKXI/HiulsPgPokD7ry+vLkY+6MIP0r1CigDkbD4XeE7BAq6THMynO6di5rorXSbCxwbSytoCBgGOJVP6VcooAKKKKACiiigAooooAKKKKACiiigAooooAKKKKACiiigAooooAKKWigBKKWigBKKWigBKKWigBKKWigBKKWigBKKWigBKKWigBKKWigBKKWigDxr4ofC6ee6l1vw9CZGkJa5tUHOe7IO/uPy9K8adWjcqylWBwQRyK+yq+bfi//AMj1d/RP5UAcLRRT4f8AWCgBoUnoCfpWvY+Edf1IqLTR76QN0byWCn/gR4r1X4O/8ecn+8a9eHQUAfN9h8GvFt7kyWsFoB/z3nHP/fOa6Wx+ANwwRtQ1qJP7yQwlvyYkfyr2yigDzew+B3hq1JN1Je3mezybAP8AvkCuisPh54W05EEOi2jFDkNKnmN+bZrpqKAIYraC3UCGGOMDsigfyqWlooASilooASilooASilooASilooASilooASilooASilooASilooASilooASilooASilooASilooASilooASilooA//9k=;flipH=1;" parent="1" vertex="1">
          <mxGeometry x="488.5" y="280" width="144" height="144" as="geometry" />
        </mxCell>
        <mxCell id="BEs1SPhK9y_R24TOwFRo-23" value="Siente que su hij@ no está desarrollando su potencial ni parece mostrar signos de interés en ello&lt;br&gt;Siente que su hij@ está desentusiasmado con las actividades que realiza en periodo lectivo&lt;br&gt;Piensa que el centro educativo no está incentivando la creatividad y la resolución de problemas en los niñ@s&lt;br&gt;Piensa que el colegio no está considerando las diferencias de desarrollo intelectual entre los niñ@s" style="text;html=1;strokeColor=none;fillColor=none;align=center;verticalAlign=middle;whiteSpace=wrap;rounded=0;" parent="1" vertex="1">
          <mxGeometry x="345.5" y="145" width="430" height="110" as="geometry" />
        </mxCell>
        <mxCell id="BEs1SPhK9y_R24TOwFRo-24" value="Ve que el problema no es aislado a su hij@, que el trato personalizado en las escuelas no es habitual&lt;br&gt;Ve que hay un gran descontento con el desinterés que generan las actividades académicas en los niñ@s&lt;br&gt;Ve que su hij@ no encuentra la motivación para ir a la escuela ni hacer sus deberes" style="text;html=1;strokeColor=none;fillColor=none;align=center;verticalAlign=middle;whiteSpace=wrap;rounded=0;" parent="1" vertex="1">
          <mxGeometry x="683.13" y="303" width="320.75" height="110" as="geometry" />
        </mxCell>
        <mxCell id="BEs1SPhK9y_R24TOwFRo-25" value="Se queja en el colegio de que su hij@ está desmotivad@ porque su nivel es superior o inferior a sus compañer@s&lt;br&gt;Comparte su malestar con otros padres y con los profesores respecto al planteamiento del curso académico y de las actividades en clase&lt;br&gt;Presenta sus opiniones en asociaciones como el AMPA del colegio con tal de dar visibilidad a los problemas de su hij@&amp;nbsp;con el modelo actual" style="text;html=1;strokeColor=none;fillColor=none;align=center;verticalAlign=middle;whiteSpace=wrap;rounded=0;" parent="1" vertex="1">
          <mxGeometry x="348.5" y="461" width="430" height="110" as="geometry" />
        </mxCell>
        <mxCell id="BEs1SPhK9y_R24TOwFRo-26" value="&lt;h3&gt;ESFUERZOS VS MIEDOS&lt;/h3&gt;&lt;div&gt;Se esfuerza para promover los nuevos modelos educativos en las asociaciones de padres, está dispuesto a pagar el coste adicional de estos programas&lt;/div&gt;&lt;div&gt;Le preocupa que se invierta en los programas equivocados o que las nuevas actividades no sean lo suficientemente efectivas, y que los niñ@s no obtengan los beneficios esperados&lt;/div&gt;" style="text;html=1;strokeColor=none;fillColor=none;align=center;verticalAlign=middle;whiteSpace=wrap;rounded=0;" parent="1" vertex="1">
          <mxGeometry x="130" y="610" width="430" height="150" as="geometry" />
        </mxCell>
        <mxCell id="BEs1SPhK9y_R24TOwFRo-27" value="&lt;h3&gt;RESULTADOS VS BENEFICIOS&lt;/h3&gt;&lt;div&gt;Se espera que los resultados de poner en práctica estos nuevos modelos enfocados en el aprendizaje a través del juego sean significativos&lt;/div&gt;&lt;div&gt;Como beneficios, se desea una mejora en la autoestima, la motivación y el interés del niñ@, y que reciba una educación más personalizada y que potencie las destrezas asociadas al Pensamiento Computacional&lt;/div&gt;" style="text;html=1;strokeColor=none;fillColor=none;align=center;verticalAlign=middle;whiteSpace=wrap;rounded=0;" parent="1" vertex="1">
          <mxGeometry x="580" y="610" width="430" height="150" as="geometry" />
        </mxCell>
      </root>
    </mxGraphModel>
  </diagram>
</mxfile>
